<svg xmlns="http://www.w3.org/2000/svg" xmlns:xlink="http://www.w3.org/1999/xlink" width="186" height="149" version="1.1" viewBox="0 0 186 149"><title>logo-irefurb-white-loader</title><desc>Created with Sketch.</desc><g id="Page-1" fill="none" fill-rule="evenodd" stroke="none" stroke-width="1"><g id="Artboard" stroke="#FFFBFA" stroke-width=".5" transform="translate(-152.000000, -143.000000)"><g id="logo-irefurb-white-loader" transform="translate(152.000000, 143.000000)"><path id="Rectangle" d="M49.6662461,88.5467175 L49.7495809,138.13089 L99.3337539,138.214225 L99.2504191,88.6300523 L49.6662461,88.5467175 Z" transform="translate(74.500000, 113.380471) rotate(45.000000) translate(-74.500000, -113.380471)"/><path id="Rectangle" d="M10.6662461,49.9170879 L10.7495809,99.5012609 L60.3337539,99.5845956 L60.2504191,50.0004226 L10.6662461,49.9170879 Z" transform="translate(35.500000, 74.750842) rotate(45.000000) translate(-35.500000, -74.750842)"/><path id="Rectangle" d="M87.6662461,49.9170879 L87.7495809,99.5012609 L137.333754,99.5845956 L137.250419,50.0004226 L87.6662461,49.9170879 Z" transform="translate(112.500000, 74.750842) rotate(45.000000) translate(-112.500000, -74.750842)"/><path id="Rectangle" d="M125.666076,10.7853607 L125.749751,60.3698764 L175.333926,60.4532111 L175.250591,10.8690365 L125.666076,10.7853607 Z" transform="translate(150.500000, 35.619285) rotate(45.000000) translate(-150.500000, -35.619285)"/></g></g></g></svg>